<svg width="24" height="24" viewBox="0 0 26 26" xmlns="http://www.w3.org/2000/svg">
  <g fill-rule="nonzero" fill="#90939D">
    <path
      d="M24.06 10.125c1.075 0 1.77.768 1.77 1.957 0 .497 0 1.527-.712
        1.922.158.324.152.745.146 1.185l-.003.28c0 .925-.41 1.64-1.055
        1.936.162.33.157.76.152 1.21v.348c.005.547-.2 1.06-.577
        1.44-.144.145-.306.265-.483.357.327.462.34 1.137.347 1.47.01.537-.194 1.05-.577
        1.438-.385.393-.92.618-1.468.618H10.463c-.055
        0-.112.004-.17.01-.072.004-.15.008-.228.008-.105
        0-.215-.01-.327-.04-.196-.056-.368-.167-.52-.265l-.107-.07c-.23-.14-.453-.29-.676-.442l-.182-.123c-.117-.078-.255-.12-.4-.12h-.628V12.66l.69-.433c.33-.208.537-.566.757-.945l.993-1.674c.678-1.14
        1.357-2.28
        2.04-3.416.018-.032.042-.072.046-.088.004-.015.004-.062.003-.09l-.003-3.687c0-.476.4-.856.794-1.164.584-.457
        1.32-.574 2.02-.32.56.2 1.257.56 1.408 1.115.184.682.37 1.365.54
        2.052l.073.283c.11.43.226.873.273 1.327.07.658-.6 3.324-.995
        4.517l8.196-.012zM1.855 11.646c-.93 0-1.685.756-1.685 1.684v10.275c0 .928.756
        1.684 1.685 1.684H5.54c.37 0
        .71-.123.986-.325V11.972c-.277-.203-.615-.326-.984-.326H1.855z"
    />
  </g>
</svg>
